<svg xmlns="http://www.w3.org/2000/svg" xmlns:xlink="http://www.w3.org/1999/xlink" version="1.1" x="0px" y="0px" viewBox="0 0 60 60" style="enable-background:new 0 0 60 60;max-width:100%" xml:space="preserve" height="100%"><g style="" fill="currentColor"><g style="" fill="currentColor"><path d="M9,49h42c2.8,0,5-2.2,5-5V16c0-2.8-2.2-5-5-5H9c-2.8,0-5,2.2-5,5v28C4,46.8,6.2,49,9,49z M51,47H9c-1.7,0-3-1.3-3-3V28h48    v16C54,45.7,52.7,47,51,47z M9,13h42c1.7,0,3,1.3,3,3v4H6v-4C6,14.3,7.3,13,9,13z" style="" fill="currentColor"></path><path d="M16.3,32h-2c-2.2,0-4,1.8-4,4v2c0,2.2,1.8,4,4,4h2c2.2,0,4-1.8,4-4v-2C20.3,33.8,18.5,32,16.3,32z" style="" fill="currentColor"></path><rect x="23.3" y="34.3" width="26.5" height="2" style="" fill="currentColor"></rect><rect x="23.3" y="38.3" width="21.5" height="2" style="" fill="currentColor"></rect></g></g></svg>