<svg class="si642b1216e40fd9000da53011fdd4cc56a1cb4eaba73b87b4011e3af21680544284304 svgIcon_1J7 filled_Qbi" viewBox="0 0 32 32" xmlns="http://www.w3.org/2000/svg" style="border-radius:50%">
  <path class="outer_bDW" d="M32 0H0V32H32V0Z" fill="#45c1c7"/>
  <path d="M16,31 C24.2842712,31 31,24.2842712 31,16 C31,7.71572875 24.2842712,1 16,1 C7.71572875,1 1,7.71572875 1,16 C1,24.2842712 7.71572875,31 16,31 Z M16,32 C7.163444,32 0,24.836556 0,16 C0,7.163444 7.163444,0 16,0 C24.836556,0 32,7.163444 32,16 C32,24.836556 24.836556,32 16,32 Z" class="border_2yy" fill="#45c1c7"/>
  <path class="logo_2gS" d="M13.6383 25H16.9133V16.0044H19.3702L19.8561 13.1936H16.9133V11.1568C16.9133 10.5002 17.3379 9.8108 17.9447 9.8108H19.6171V7H17.5674V7.0126C14.3604 7.129 13.7014 8.9864 13.6443 10.9374H13.6383V13.1936H12V16.0044H13.6383V25Z" style="fill:#fff"/>
</svg>