<svg width="1065" height="195" viewBox="0 0 1065 195" fill="none" xmlns="http://www.w3.org/2000/svg">
<path d="M366.05 93.4C364.95 93.7 363.2 94 360.8 94.3C358.5 94.6 356.2 94.75 353.9 94.75C351.6 94.75 349.55 94.55 347.75 94.15C346.05 93.85 344.6 93.25 343.4 92.35C342.2 91.45 341.3 90.2 340.7 88.6C340.1 87 339.8 84.9 339.8 82.3V58.9H311V93.4C309.9 93.7 308.15 94 305.75 94.3C303.45 94.6 301.15 94.75 298.85 94.75C296.55 94.75 294.5 94.55 292.7 94.15C291 93.85 289.55 93.25 288.35 92.35C287.15 91.45 286.25 90.2 285.65 88.6C285.05 87 284.75 84.9 284.75 82.3V3.1C285.85 2.9 287.6 2.65 290 2.35C292.4 1.95 294.7 1.75 296.9 1.75C299.2 1.75 301.2 1.95 302.9 2.35C304.7 2.65 306.2 3.24999 307.4 4.14999C308.6 5.04999 309.5 6.3 310.1 7.9C310.7 9.5 311 11.6 311 14.2V38.2H339.8V3.1C340.9 2.9 342.65 2.65 345.05 2.35C347.45 1.95 349.75 1.75 351.95 1.75C354.25 1.75 356.25 1.95 357.95 2.35C359.75 2.65 361.25 3.24999 362.45 4.14999C363.65 5.04999 364.55 6.3 365.15 7.9C365.75 9.5 366.05 11.6 366.05 14.2V93.4ZM404.881 5.8C406.581 4.8 409.131 3.84999 412.531 2.94999C416.031 2.04999 419.531 1.59999 423.031 1.59999C428.031 1.59999 432.431 2.34999 436.231 3.85C440.131 5.25 442.631 7.5 443.731 10.6C445.531 15.8 447.481 21.85 449.581 28.75C451.681 35.65 453.781 42.8 455.881 50.2C457.981 57.5 460.031 64.75 462.031 71.95C464.031 79.05 465.781 85.35 467.281 90.85C466.081 92.25 464.281 93.35 461.881 94.15C459.481 95.05 456.631 95.5 453.331 95.5C450.931 95.5 448.881 95.3 447.181 94.9C445.581 94.5 444.231 93.9 443.131 93.1C442.131 92.3 441.281 91.25 440.581 89.95C439.981 88.65 439.431 87.15 438.931 85.45L436.231 75.1H409.081C408.281 78.1 407.481 81.2 406.681 84.4C405.881 87.6 405.081 90.7 404.281 93.7C402.881 94.2 401.381 94.6 399.781 94.9C398.281 95.3 396.431 95.5 394.231 95.5C389.131 95.5 385.331 94.65 382.831 92.95C380.431 91.15 379.231 88.7 379.231 85.6C379.231 84.2 379.431 82.8 379.831 81.4C380.231 80 380.681 78.35 381.181 76.45C381.881 73.75 382.831 70.4 384.031 66.4C385.331 62.4 386.731 58.1 388.231 53.5C389.731 48.8 391.331 44 393.031 39.1C394.731 34.2 396.331 29.6 397.831 25.3C399.331 20.9 400.681 17 401.881 13.6C403.181 10.2 404.181 7.59999 404.881 5.8ZM422.881 25.15C421.481 29.35 419.881 34.05 418.081 39.25C416.381 44.35 414.831 49.55 413.431 54.85H432.031C430.631 49.45 429.181 44.2 427.681 39.1C426.281 33.9 424.981 29.25 423.781 25.15H422.881ZM513.624 45.25C517.824 45.25 521.024 44.3 523.224 42.4C525.524 40.4 526.674 37.4 526.674 33.4C526.674 29.6 525.474 26.7 523.074 24.7C520.774 22.6 517.374 21.55 512.874 21.55C511.274 21.55 509.924 21.6 508.824 21.7C507.824 21.7 506.774 21.8 505.674 22V45.25H513.624ZM505.824 93.4C504.724 93.7 502.974 94 500.574 94.3C498.274 94.6 495.974 94.75 493.674 94.75C491.374 94.75 489.324 94.55 487.524 94.15C485.824 93.85 484.374 93.25 483.174 92.35C481.974 91.45 481.074 90.2 480.474 88.6C479.874 87 479.574 84.9 479.574 82.3V11.65C479.574 9.54999 480.124 7.94999 481.224 6.85C482.424 5.64999 484.024 4.69999 486.024 4C489.424 2.79999 493.274 1.94999 497.574 1.44999C501.974 0.849995 506.374 0.549996 510.774 0.549996C524.574 0.549996 535.124 3.5 542.424 9.4C549.724 15.3 553.374 23.3 553.374 33.4C553.374 38.3 552.574 42.75 550.974 46.75C549.474 50.65 547.174 54.05 544.074 56.95C541.074 59.75 537.224 61.95 532.524 63.55C527.924 65.05 522.574 65.8 516.474 65.8H505.824V93.4ZM600.782 45.25C604.982 45.25 608.182 44.3 610.382 42.4C612.682 40.4 613.832 37.4 613.832 33.4C613.832 29.6 612.632 26.7 610.232 24.7C607.932 22.6 604.532 21.55 600.032 21.55C598.432 21.55 597.082 21.6 595.982 21.7C594.982 21.7 593.932 21.8 592.832 22V45.25H600.782ZM592.982 93.4C591.882 93.7 590.132 94 587.732 94.3C585.432 94.6 583.132 94.75 580.832 94.75C578.532 94.75 576.482 94.55 574.682 94.15C572.982 93.85 571.532 93.25 570.332 92.35C569.132 91.45 568.232 90.2 567.632 88.6C567.032 87 566.732 84.9 566.732 82.3V11.65C566.732 9.54999 567.282 7.94999 568.382 6.85C569.582 5.64999 571.182 4.69999 573.182 4C576.582 2.79999 580.432 1.94999 584.732 1.44999C589.132 0.849995 593.532 0.549996 597.932 0.549996C611.732 0.549996 622.282 3.5 629.582 9.4C636.882 15.3 640.532 23.3 640.532 33.4C640.532 38.3 639.732 42.75 638.132 46.75C636.632 50.65 634.332 54.05 631.232 56.95C628.232 59.75 624.382 61.95 619.682 63.55C615.082 65.05 609.732 65.8 603.632 65.8H592.982V93.4ZM701.591 93.4C700.491 93.7 698.791 94 696.491 94.3C694.191 94.6 691.941 94.75 689.741 94.75C685.141 94.75 681.691 94 679.391 92.5C677.091 90.9 675.941 87.6 675.941 82.6V62.35C673.441 58.65 670.741 54.55 667.841 50.05C664.941 45.55 662.091 40.95 659.291 36.25C656.491 31.55 653.891 26.95 651.491 22.45C649.091 17.85 647.141 13.65 645.641 9.84999C646.941 8.04999 648.691 6.39999 650.891 4.89999C653.191 3.4 655.991 2.65 659.291 2.65C663.191 2.65 666.341 3.44999 668.741 5.04999C671.241 6.65 673.591 9.65 675.791 14.05L688.241 39.1H689.141C690.541 36 691.741 33.2 692.741 30.7C693.841 28.1 694.891 25.55 695.891 23.05C696.891 20.45 697.941 17.8 699.041 15.1C700.141 12.3 701.391 9.1 702.791 5.49999C704.591 4.59999 706.591 3.89999 708.791 3.4C710.991 2.9 713.091 2.65 715.091 2.65C718.591 2.65 721.541 3.6 723.941 5.49999C726.441 7.3 727.691 10.05 727.691 13.75C727.691 14.95 727.441 16.4 726.941 18.1C726.441 19.8 725.291 22.4 723.491 25.9C721.691 29.3 719.041 33.95 715.541 39.85C712.141 45.75 707.491 53.45 701.591 62.95V93.4ZM804.103 45.25C808.303 45.25 811.503 44.3 813.703 42.4C816.003 40.4 817.153 37.4 817.153 33.4C817.153 29.6 815.953 26.7 813.553 24.7C811.253 22.6 807.853 21.55 803.353 21.55C801.753 21.55 800.403 21.6 799.303 21.7C798.303 21.7 797.253 21.8 796.153 22V45.25H804.103ZM796.303 93.4C795.203 93.7 793.453 94 791.053 94.3C788.753 94.6 786.453 94.75 784.153 94.75C781.853 94.75 779.803 94.55 778.003 94.15C776.303 93.85 774.853 93.25 773.653 92.35C772.453 91.45 771.553 90.2 770.953 88.6C770.353 87 770.053 84.9 770.053 82.3V11.65C770.053 9.54999 770.603 7.94999 771.703 6.85C772.903 5.64999 774.503 4.69999 776.503 4C779.903 2.79999 783.753 1.94999 788.053 1.44999C792.453 0.849995 796.853 0.549996 801.253 0.549996C815.053 0.549996 825.603 3.5 832.903 9.4C840.203 15.3 843.853 23.3 843.853 33.4C843.853 38.3 843.053 42.75 841.453 46.75C839.953 50.65 837.653 54.05 834.553 56.95C831.553 59.75 827.703 61.95 823.003 63.55C818.403 65.05 813.053 65.8 806.953 65.8H796.303V93.4ZM872.02 5.8C873.72 4.8 876.27 3.84999 879.67 2.94999C883.17 2.04999 886.67 1.59999 890.17 1.59999C895.17 1.59999 899.57 2.34999 903.37 3.85C907.27 5.25 909.77 7.5 910.87 10.6C912.67 15.8 914.62 21.85 916.72 28.75C918.82 35.65 920.92 42.8 923.02 50.2C925.12 57.5 927.17 64.75 929.17 71.95C931.17 79.05 932.92 85.35 934.42 90.85C933.22 92.25 931.42 93.35 929.02 94.15C926.62 95.05 923.77 95.5 920.47 95.5C918.07 95.5 916.02 95.3 914.32 94.9C912.72 94.5 911.37 93.9 910.27 93.1C909.27 92.3 908.42 91.25 907.72 89.95C907.12 88.65 906.57 87.15 906.07 85.45L903.37 75.1H876.22C875.42 78.1 874.62 81.2 873.82 84.4C873.02 87.6 872.22 90.7 871.42 93.7C870.02 94.2 868.52 94.6 866.92 94.9C865.42 95.3 863.57 95.5 861.37 95.5C856.27 95.5 852.47 94.65 849.97 92.95C847.57 91.15 846.37 88.7 846.37 85.6C846.37 84.2 846.57 82.8 846.97 81.4C847.37 80 847.82 78.35 848.32 76.45C849.02 73.75 849.97 70.4 851.17 66.4C852.47 62.4 853.87 58.1 855.37 53.5C856.87 48.8 858.47 44 860.17 39.1C861.87 34.2 863.47 29.6 864.97 25.3C866.47 20.9 867.82 17 869.02 13.6C870.32 10.2 871.32 7.59999 872.02 5.8ZM890.02 25.15C888.62 29.35 887.02 34.05 885.22 39.25C883.52 44.35 881.97 49.55 880.57 54.85H899.17C897.77 49.45 896.32 44.2 894.82 39.1C893.42 33.9 892.12 29.25 890.92 25.15H890.02ZM985.783 25.3C986.883 24.8 988.583 24.25 990.883 23.65C993.283 22.95 995.683 22.6 998.083 22.6C1002.28 22.6 1005.78 23.25 1008.58 24.55C1011.38 25.75 1013.08 27.55 1013.68 29.95C1014.78 34.05 1015.78 37.9 1016.68 41.5C1017.68 45 1018.63 48.4 1019.53 51.7C1020.43 54.9 1021.28 58.1 1022.08 61.3C1022.98 64.5 1023.83 67.85 1024.63 71.35H1025.38C1026.28 65.25 1027.08 59.45 1027.78 53.95C1028.48 48.35 1029.13 42.9 1029.73 37.6C1030.33 32.2 1030.93 26.9 1031.53 21.7C1032.13 16.4 1032.73 11.05 1033.33 5.64999C1037.03 3.55 1040.98 2.5 1045.18 2.5C1048.88 2.5 1052.08 3.3 1054.78 4.89999C1057.48 6.5 1058.83 9.2 1058.83 13C1058.83 15.2 1058.58 18.35 1058.08 22.45C1057.68 26.45 1057.08 30.95 1056.28 35.95C1055.58 40.95 1054.73 46.2 1053.73 51.7C1052.73 57.2 1051.68 62.45 1050.58 67.45C1049.48 72.45 1048.33 77 1047.13 81.1C1046.03 85.1 1044.98 88.2 1043.98 90.4C1042.48 91.8 1040.03 92.95 1036.63 93.85C1033.23 94.75 1029.73 95.2 1026.13 95.2C1021.43 95.2 1017.43 94.6 1014.13 93.4C1010.93 92.1 1008.98 90.3 1008.28 88C1006.98 84 1005.58 79.25 1004.08 73.75C1002.58 68.25 1000.98 62.2 999.283 55.6C997.883 62.1 996.433 68.45 994.933 74.65C993.433 80.85 992.083 86.1 990.883 90.4C989.383 91.8 987.133 92.95 984.133 93.85C981.133 94.75 977.833 95.2 974.233 95.2C969.733 95.2 965.633 94.6 961.933 93.4C958.333 92.1 955.983 90.3 954.883 88C953.983 86.2 952.983 83.55 951.883 80.05C950.883 76.45 949.833 72.4 948.733 67.9C947.633 63.3 946.483 58.35 945.283 53.05C944.183 47.75 943.133 42.45 942.133 37.15C941.233 31.85 940.383 26.7 939.583 21.7C938.783 16.6 938.183 11.95 937.783 7.74999C939.183 6.45 941.133 5.25 943.633 4.14999C946.133 3.05 948.833 2.5 951.733 2.5C955.533 2.5 958.633 3.35 961.033 5.04999C963.533 6.65 965.083 9.4 965.683 13.3C967.283 23.5 968.583 32 969.583 38.8C970.683 45.6 971.533 51.2 972.133 55.6C972.833 59.9 973.333 63.25 973.633 65.65C973.933 68.05 974.233 69.95 974.533 71.35H975.283C976.183 67.35 977.033 63.65 977.833 60.25C978.633 56.85 979.433 53.45 980.233 50.05C981.133 46.55 982.033 42.85 982.933 38.95C983.833 34.95 984.783 30.4 985.783 25.3Z" fill="#F8A573"/>
<path d="M286.9 148.955C288.72 148.608 290.713 148.348 292.88 148.175C295.09 147.958 297.278 147.85 299.445 147.85C301.698 147.85 303.952 148.045 306.205 148.435C308.502 148.782 310.56 149.518 312.38 150.645C314.2 151.728 315.673 153.267 316.8 155.26C317.97 157.21 318.555 159.767 318.555 162.93C318.555 165.79 318.057 168.217 317.06 170.21C316.063 172.16 314.742 173.763 313.095 175.02C311.448 176.277 309.563 177.187 307.44 177.75C305.36 178.313 303.193 178.595 300.94 178.595C300.723 178.595 300.377 178.595 299.9 178.595C299.423 178.595 298.925 178.595 298.405 178.595C297.885 178.552 297.365 178.508 296.845 178.465C296.368 178.422 296.022 178.378 295.805 178.335V194H286.9V148.955ZM300.16 155.52C299.293 155.52 298.47 155.563 297.69 155.65C296.91 155.693 296.282 155.758 295.805 155.845V170.6C295.978 170.643 296.238 170.687 296.585 170.73C296.932 170.773 297.3 170.817 297.69 170.86C298.08 170.86 298.448 170.86 298.795 170.86C299.185 170.86 299.467 170.86 299.64 170.86C300.81 170.86 301.958 170.752 303.085 170.535C304.255 170.318 305.295 169.928 306.205 169.365C307.115 168.758 307.83 167.935 308.35 166.895C308.913 165.855 309.195 164.49 309.195 162.8C309.195 161.37 308.935 160.2 308.415 159.29C307.895 158.337 307.202 157.578 306.335 157.015C305.512 156.452 304.558 156.062 303.475 155.845C302.392 155.628 301.287 155.52 300.16 155.52ZM342.622 148.5H369.597V156.43H351.527V167.025H367.972V174.955H351.527V186.07H369.922V194H342.622V148.5ZM427.412 156.43H414.152V194H405.247V156.43H391.922V148.5H427.412V156.43ZM502.568 181.78C502.568 180.393 502.048 179.267 501.008 178.4C500.012 177.533 498.733 176.753 497.173 176.06C495.657 175.323 493.988 174.587 492.168 173.85C490.392 173.07 488.723 172.138 487.163 171.055C485.647 169.928 484.368 168.542 483.328 166.895C482.332 165.248 481.833 163.147 481.833 160.59C481.833 158.38 482.202 156.473 482.938 154.87C483.675 153.223 484.715 151.858 486.058 150.775C487.445 149.692 489.07 148.89 490.933 148.37C492.797 147.85 494.877 147.59 497.173 147.59C499.817 147.59 502.308 147.828 504.648 148.305C506.988 148.738 508.917 149.388 510.433 150.255L507.638 157.73C506.685 157.123 505.255 156.582 503.348 156.105C501.442 155.585 499.383 155.325 497.173 155.325C495.093 155.325 493.49 155.737 492.363 156.56C491.28 157.383 490.738 158.488 490.738 159.875C490.738 161.175 491.237 162.258 492.233 163.125C493.273 163.992 494.552 164.793 496.068 165.53C497.628 166.267 499.297 167.025 501.073 167.805C502.893 168.585 504.562 169.538 506.078 170.665C507.638 171.748 508.917 173.113 509.913 174.76C510.953 176.363 511.473 178.378 511.473 180.805C511.473 183.232 511.062 185.333 510.238 187.11C509.458 188.843 508.332 190.295 506.858 191.465C505.428 192.635 503.673 193.502 501.593 194.065C499.557 194.628 497.303 194.91 494.833 194.91C491.583 194.91 488.723 194.607 486.253 194C483.783 193.393 481.963 192.787 480.793 192.18L483.653 184.575C484.13 184.835 484.737 185.117 485.473 185.42C486.253 185.723 487.12 186.005 488.073 186.265C489.027 186.525 490.023 186.742 491.063 186.915C492.147 187.088 493.252 187.175 494.378 187.175C497.022 187.175 499.037 186.742 500.423 185.875C501.853 184.965 502.568 183.6 502.568 181.78ZM561.476 174.955H544.836V194H535.931V148.5H544.836V167.025H561.476V148.5H570.381V194H561.476V174.955ZM595.365 171.25C595.365 163.667 597.033 157.838 600.37 153.765C603.707 149.648 608.473 147.59 614.67 147.59C617.92 147.59 620.758 148.153 623.185 149.28C625.612 150.407 627.627 152.01 629.23 154.09C630.833 156.17 632.025 158.662 632.805 161.565C633.585 164.468 633.975 167.697 633.975 171.25C633.975 178.833 632.285 184.683 628.905 188.8C625.568 192.873 620.823 194.91 614.67 194.91C611.377 194.91 608.517 194.347 606.09 193.22C603.663 192.093 601.648 190.49 600.045 188.41C598.485 186.33 597.315 183.838 596.535 180.935C595.755 178.032 595.365 174.803 595.365 171.25ZM604.725 171.25C604.725 173.547 604.92 175.67 605.31 177.62C605.7 179.527 606.285 181.173 607.065 182.56C607.888 183.947 608.928 185.03 610.185 185.81C611.442 186.59 612.937 186.98 614.67 186.98C617.833 186.98 620.282 185.745 622.015 183.275C623.748 180.805 624.615 176.797 624.615 171.25C624.615 169.04 624.42 166.982 624.03 165.075C623.683 163.168 623.12 161.5 622.34 160.07C621.56 158.64 620.542 157.535 619.285 156.755C618.028 155.932 616.49 155.52 614.67 155.52C611.507 155.52 609.058 156.798 607.325 159.355C605.592 161.868 604.725 165.833 604.725 171.25ZM658.865 148.955C660.685 148.608 662.678 148.348 664.845 148.175C667.055 147.958 669.243 147.85 671.41 147.85C673.663 147.85 675.917 148.045 678.17 148.435C680.467 148.782 682.525 149.518 684.345 150.645C686.165 151.728 687.638 153.267 688.765 155.26C689.935 157.21 690.52 159.767 690.52 162.93C690.52 165.79 690.022 168.217 689.025 170.21C688.028 172.16 686.707 173.763 685.06 175.02C683.413 176.277 681.528 177.187 679.405 177.75C677.325 178.313 675.158 178.595 672.905 178.595C672.688 178.595 672.342 178.595 671.865 178.595C671.388 178.595 670.89 178.595 670.37 178.595C669.85 178.552 669.33 178.508 668.81 178.465C668.333 178.422 667.987 178.378 667.77 178.335V194H658.865V148.955ZM672.125 155.52C671.258 155.52 670.435 155.563 669.655 155.65C668.875 155.693 668.247 155.758 667.77 155.845V170.6C667.943 170.643 668.203 170.687 668.55 170.73C668.897 170.773 669.265 170.817 669.655 170.86C670.045 170.86 670.413 170.86 670.76 170.86C671.15 170.86 671.432 170.86 671.605 170.86C672.775 170.86 673.923 170.752 675.05 170.535C676.22 170.318 677.26 169.928 678.17 169.365C679.08 168.758 679.795 167.935 680.315 166.895C680.878 165.855 681.16 164.49 681.16 162.8C681.16 161.37 680.9 160.2 680.38 159.29C679.86 158.337 679.167 157.578 678.3 157.015C677.477 156.452 676.523 156.062 675.44 155.845C674.357 155.628 673.252 155.52 672.125 155.52ZM749.03 181.39C749.03 179.743 749.29 178.183 749.81 176.71C750.374 175.193 751.132 173.785 752.085 172.485C753.082 171.185 754.252 169.972 755.595 168.845C756.939 167.718 758.39 166.722 759.95 165.855C758.867 164.425 757.979 162.973 757.285 161.5C756.592 160.027 756.245 158.467 756.245 156.82C756.245 155.737 756.44 154.653 756.83 153.57C757.264 152.443 757.914 151.447 758.78 150.58C759.69 149.67 760.86 148.955 762.29 148.435C763.72 147.872 765.454 147.59 767.49 147.59C769.484 147.59 771.174 147.828 772.56 148.305C773.99 148.782 775.139 149.41 776.005 150.19C776.872 150.97 777.5 151.858 777.89 152.855C778.28 153.852 778.475 154.87 778.475 155.91C778.475 157.687 777.847 159.55 776.59 161.5C775.334 163.407 773.189 165.248 770.155 167.025C771.672 169.365 773.189 171.51 774.705 173.46C776.222 175.41 777.912 177.338 779.775 179.245C780.772 178.162 781.66 176.818 782.44 175.215C783.264 173.568 783.979 171.9 784.585 170.21L790.695 173.46C790.435 174.24 790.067 175.107 789.59 176.06C789.157 176.97 788.659 177.902 788.095 178.855C787.575 179.808 787.034 180.718 786.47 181.585C785.907 182.408 785.387 183.123 784.91 183.73C786.297 184.987 787.51 185.983 788.55 186.72C789.59 187.413 790.652 188.063 791.735 188.67L787.25 194.91C786.037 194.347 784.78 193.61 783.48 192.7C782.224 191.747 780.967 190.663 779.71 189.45C778.15 190.88 776.2 192.158 773.86 193.285C771.52 194.368 768.639 194.91 765.215 194.91C762.962 194.91 760.839 194.607 758.845 194C756.895 193.393 755.184 192.505 753.71 191.335C752.28 190.165 751.132 188.757 750.265 187.11C749.442 185.42 749.03 183.513 749.03 181.39ZM774.64 184.315C772.43 182.018 770.415 179.743 768.595 177.49C766.775 175.193 765.194 173.027 763.85 170.99C761.77 172.593 760.189 174.153 759.105 175.67C758.022 177.143 757.48 178.812 757.48 180.675C757.48 182.885 758.282 184.618 759.885 185.875C761.532 187.132 763.677 187.76 766.32 187.76C768.054 187.76 769.679 187.413 771.195 186.72C772.712 185.983 773.86 185.182 774.64 184.315ZM764.695 157.21C764.695 159.03 765.475 160.98 767.035 163.06C768.725 161.977 769.939 160.958 770.675 160.005C771.455 159.052 771.845 158.142 771.845 157.275C771.845 156.235 771.542 155.412 770.935 154.805C770.372 154.198 769.44 153.895 768.14 153.895C766.97 153.895 766.104 154.198 765.54 154.805C764.977 155.412 764.695 156.213 764.695 157.21ZM883.365 192.115C881.978 193.112 880.202 193.827 878.035 194.26C875.912 194.693 873.723 194.91 871.47 194.91C868.74 194.91 866.14 194.498 863.67 193.675C861.243 192.808 859.098 191.443 857.235 189.58C855.372 187.673 853.877 185.225 852.75 182.235C851.667 179.202 851.125 175.54 851.125 171.25C851.125 166.787 851.732 163.06 852.945 160.07C854.202 157.037 855.805 154.61 857.755 152.79C859.748 150.927 861.958 149.605 864.385 148.825C866.812 148.002 869.238 147.59 871.665 147.59C874.265 147.59 876.453 147.763 878.23 148.11C880.05 148.457 881.545 148.868 882.715 149.345L880.96 156.885C879.963 156.408 878.772 156.062 877.385 155.845C876.042 155.628 874.395 155.52 872.445 155.52C868.848 155.52 865.945 156.798 863.735 159.355C861.568 161.912 860.485 165.877 860.485 171.25C860.485 173.59 860.745 175.735 861.265 177.685C861.785 179.592 862.565 181.238 863.605 182.625C864.688 183.968 866.01 185.03 867.57 185.81C869.173 186.547 871.015 186.915 873.095 186.915C875.045 186.915 876.692 186.72 878.035 186.33C879.378 185.94 880.548 185.442 881.545 184.835L883.365 192.115ZM926.957 183.925H912.982L909.537 194H900.632L917.012 148.175H923.577L939.957 194H930.597L926.957 183.925ZM915.257 176.775H925.007L921.627 166.635L920.262 159.485H919.937L918.572 166.7L915.257 176.775ZM962.413 148.955C963.409 148.782 964.471 148.63 965.598 148.5C966.768 148.327 967.916 148.197 969.043 148.11C970.213 148.023 971.339 147.958 972.423 147.915C973.506 147.872 974.503 147.85 975.413 147.85C977.536 147.85 979.616 148.045 981.653 148.435C983.733 148.825 985.574 149.497 987.178 150.45C988.824 151.403 990.124 152.725 991.078 154.415C992.074 156.062 992.573 158.142 992.573 160.655C992.573 164.382 991.706 167.415 989.973 169.755C988.239 172.095 985.921 173.72 983.018 174.63L986.203 176.645L996.603 194H986.333L975.998 176.19L971.318 175.345V194H962.413V148.955ZM976.063 155.78C975.153 155.78 974.243 155.802 973.333 155.845C972.466 155.888 971.794 155.975 971.318 156.105V169.3H975.088C977.558 169.3 979.529 168.737 981.003 167.61C982.476 166.483 983.213 164.62 983.213 162.02C983.213 160.07 982.606 158.553 981.393 157.47C980.179 156.343 978.403 155.78 976.063 155.78ZM1020.04 148.5H1047.01V156.43H1028.94V167.025H1045.39V174.955H1028.94V186.07H1047.34V194H1020.04V148.5Z" fill="black" fill-opacity="0.19"/>
<path d="M88.5007 124.496H123.499C124.56 124.496 125.578 124.074 126.328 123.324C127.078 122.574 127.499 121.557 127.499 120.496V85.4971C127.499 84.4362 127.078 83.4188 126.328 82.6687C125.578 81.9186 124.56 81.4972 123.499 81.4972H88.5007C87.4399 81.4972 86.4225 81.9186 85.6724 82.6687C84.9223 83.4188 84.5009 84.4362 84.5009 85.4971V120.496C84.5009 121.557 84.9223 122.574 85.6724 123.324C86.4225 124.074 87.4399 124.496 88.5007 124.496ZM92.5006 89.4969H102V102.996C102 104.057 102.422 105.075 103.172 105.825C103.922 106.575 104.939 106.996 106 106.996C107.061 106.996 108.078 106.575 108.828 105.825C109.579 105.075 110 104.057 110 102.996V89.4969H119.5V116.496H92.5006V89.4969Z" fill="#45C1C7" stroke="#45C1C7"/>
<path d="M154.998 98.9966H151.498C150.438 98.9966 149.42 99.418 148.67 100.168C147.92 100.918 147.499 101.936 147.499 102.996C147.499 104.057 147.92 105.075 148.67 105.825C149.42 106.575 150.438 106.996 151.498 106.996H154.998C156.059 106.996 157.076 106.575 157.827 105.825C158.577 105.075 158.998 104.057 158.998 102.996C158.998 101.936 158.577 100.918 157.827 100.168C157.076 99.418 156.059 98.9966 154.998 98.9966Z" fill="#45C1C7" stroke="#45C1C7"/>
<path d="M172.498 98.9966H168.998C167.937 98.9966 166.92 99.418 166.169 100.168C165.419 100.918 164.998 101.936 164.998 102.996C164.998 104.057 165.419 105.075 166.169 105.825C166.92 106.575 167.937 106.996 168.998 106.996H172.498C173.558 106.996 174.576 106.575 175.326 105.825C176.076 105.075 176.498 104.057 176.498 102.996C176.498 101.936 176.076 100.918 175.326 100.168C174.576 99.418 173.558 98.9966 172.498 98.9966Z" fill="#45C1C7" stroke="#45C1C7"/>
<path d="M126.999 29.9991H130.499C131.56 29.9991 132.577 29.5777 133.327 28.8276C134.078 28.0775 134.499 27.0601 134.499 25.9993C134.499 24.9384 134.078 23.921 133.327 23.1709C132.577 22.4208 131.56 21.9994 130.499 21.9994H126.999C125.938 21.9994 124.921 22.4208 124.171 23.1709C123.421 23.921 122.999 24.9384 122.999 25.9993C122.999 27.0601 123.421 28.0775 124.171 28.8276C124.921 29.5777 125.938 29.9991 126.999 29.9991Z" fill="#45C1C7" stroke="#45C1C7"/>
<path d="M109.5 29.9991H113C114.061 29.9991 115.078 29.5777 115.828 28.8276C116.578 28.0775 117 27.0601 117 25.9993C117 24.9384 116.578 23.921 115.828 23.1709C115.078 22.4208 114.061 21.9994 113 21.9994H109.5C108.439 21.9994 107.422 22.4208 106.672 23.1709C105.921 23.921 105.5 24.9384 105.5 25.9993C105.5 27.0601 105.921 28.0775 106.672 28.8276C107.422 29.5777 108.439 29.9991 109.5 29.9991Z" fill="#45C1C7" stroke="#45C1C7"/>
<path d="M92.0006 29.9991H95.5005C96.5613 29.9991 97.5787 29.5777 98.3288 28.8276C99.0789 28.0775 99.5003 27.0601 99.5003 25.9993C99.5003 24.9384 99.0789 23.921 98.3288 23.1709C97.5787 22.4208 96.5613 21.9994 95.5005 21.9994H92.0006C90.9398 21.9994 89.9224 22.4208 89.1723 23.1709C88.4221 23.921 88.0007 24.9384 88.0007 25.9993C88.0007 27.0601 88.4221 28.0775 89.1723 28.8276C89.9224 29.5777 90.9398 29.9991 92.0006 29.9991Z" fill="#45C1C7" stroke="#45C1C7"/>
<mask id="path-9-outside-1" maskUnits="userSpaceOnUse" x="0.00390625" y="4" width="212" height="191" fill="black">
<rect fill="white" x="0.00390625" y="4" width="212" height="191"/>
<path d="M206.796 24.5993L200.266 19.6995C187.527 10.186 172.062 5.03134 156.164 5H55.8364C39.939 5.03209 24.4752 10.1867 11.738 19.6995L5.20375 24.5993C3.90255 25.5799 2.84619 26.8486 2.11752 28.306C1.38886 29.7633 1.00769 31.3696 1.00391 32.999V95.9967C1.00661 97.6262 1.38731 99.2329 2.11606 100.69C2.84481 102.148 3.90175 103.416 5.20375 104.396L11.7345 109.296C17.0339 113.249 22.8424 116.469 29.0029 118.868V130.995C29.0029 131.924 29.3716 132.814 30.028 133.47C30.6843 134.127 31.5745 134.495 32.5027 134.495H46.5022C47.4305 134.495 48.3207 134.127 48.977 133.47C49.6334 132.814 50.0021 131.924 50.0021 130.995V123.737C51.948 123.891 53.8975 123.996 55.8364 123.996H71.0013V134.495C71.0013 135.423 71.3701 136.314 72.0264 136.97C72.6828 137.626 73.573 137.995 74.5012 137.995H102.5V155.494H88.0597C87.5132 153.373 86.4765 151.41 85.033 149.762C83.5895 148.115 81.7795 146.829 79.7485 146.008C77.7176 145.187 75.5224 144.854 73.3394 145.036C71.1565 145.218 69.0467 145.91 67.1798 147.056C65.3129 148.202 63.7409 149.77 62.5903 151.634C61.4397 153.498 60.7425 155.606 60.5549 157.788C60.3673 159.971 60.6945 162.167 61.5101 164.2C62.3257 166.233 63.6071 168.046 65.251 169.494C63.6071 170.942 62.3257 172.755 61.5101 174.788C60.6945 176.821 60.3673 179.017 60.5549 181.199C60.7425 183.382 61.4397 185.49 62.5903 187.354C63.7409 189.218 65.3129 190.786 67.1798 191.932C69.0467 193.078 71.1565 193.77 73.3394 193.952C75.5224 194.134 77.7176 193.801 79.7485 192.98C81.7795 192.159 83.5895 190.873 85.033 189.226C86.4765 187.578 87.5132 185.615 88.0597 183.493H123.94C124.487 185.615 125.524 187.578 126.967 189.226C128.411 190.873 130.221 192.159 132.252 192.98C134.283 193.801 136.478 194.134 138.661 193.952C140.844 193.77 142.953 193.078 144.82 191.932C146.687 190.786 148.259 189.218 149.41 187.354C150.56 185.49 151.258 183.382 151.445 181.199C151.633 179.017 151.306 176.821 150.49 174.788C149.674 172.755 148.393 170.942 146.749 169.494C148.393 168.046 149.674 166.233 150.49 164.2C151.306 162.167 151.633 159.971 151.445 157.788C151.258 155.606 150.56 153.498 149.41 151.634C148.259 149.77 146.687 148.202 144.82 147.056C142.953 145.91 140.844 145.218 138.661 145.036C136.478 144.854 134.283 145.187 132.252 146.008C130.221 146.829 128.411 148.115 126.967 149.762C125.524 151.41 124.487 153.373 123.94 155.494H109.5V137.995H137.499C138.427 137.995 139.317 137.626 139.974 136.97C140.63 136.314 140.999 135.423 140.999 134.495V123.996H156.164C172.061 123.964 187.525 118.809 200.262 109.296L206.796 104.396C208.098 103.416 209.154 102.147 209.883 100.69C210.611 99.2323 210.992 97.626 210.996 95.9967V32.999C210.994 31.3694 210.613 29.7626 209.884 28.3051C209.156 26.8475 208.099 25.579 206.796 24.5993V24.5993ZM8.00365 32.999C8.00365 32.4556 8.13015 31.9198 8.37314 31.4338C8.61613 30.9478 8.96893 30.5251 9.4036 30.1991L15.9379 25.2993C27.4623 16.6932 41.4532 12.0296 55.8364 11.9997H132.834L144.499 20.7494V31.249L132.834 39.9987H55.8364C39.939 40.0308 24.4752 45.1854 11.738 54.6982L8.00365 57.4981V32.999ZM29.0029 111.344C24.3705 109.301 19.987 106.735 15.9379 103.696L9.4036 98.7966C8.96893 98.4706 8.61613 98.0478 8.37314 97.5619C8.13015 97.0759 8.00365 96.54 8.00365 95.9967V71.4976L11.7345 74.2975C17.0339 78.2503 22.8424 81.4701 29.0029 83.8696V111.344ZM43.0024 127.496H36.0026V71.4976H43.0024V127.496ZM71.0013 116.996H55.8364C53.8975 116.996 51.948 116.877 50.0021 116.705V88.7379C51.948 88.8919 53.8975 88.9969 55.8364 88.9969H71.0013V116.996ZM126.999 162.494C127.928 162.494 128.818 162.125 129.474 161.469C130.13 160.813 130.499 159.923 130.499 158.994C130.499 157.61 130.91 156.257 131.679 155.106C132.448 153.954 133.541 153.057 134.82 152.527C136.099 151.998 137.507 151.859 138.864 152.129C140.222 152.399 141.47 153.066 142.448 154.045C143.427 155.024 144.094 156.271 144.364 157.629C144.634 158.987 144.496 160.394 143.966 161.673C143.436 162.952 142.539 164.045 141.388 164.814C140.237 165.584 138.883 165.994 137.499 165.994H136.575C135.647 165.994 134.756 166.363 134.1 167.019C133.444 167.676 133.075 168.566 133.075 169.494C133.075 170.422 133.444 171.312 134.1 171.969C134.756 172.625 135.647 172.994 136.575 172.994H137.499C138.883 172.994 140.237 173.404 141.388 174.174C142.539 174.943 143.436 176.036 143.966 177.315C144.496 178.594 144.634 180.001 144.364 181.359C144.094 182.717 143.427 183.964 142.448 184.943C141.47 185.922 140.222 186.589 138.864 186.859C137.507 187.129 136.099 186.99 134.82 186.461C133.541 185.931 132.448 185.034 131.679 183.882C130.91 182.731 130.499 181.378 130.499 179.994C130.499 179.065 130.13 178.175 129.474 177.519C128.818 176.862 127.928 176.494 126.999 176.494H85.0008C84.0726 176.494 83.1824 176.862 82.526 177.519C81.8697 178.175 81.501 179.065 81.501 179.994C81.501 181.378 81.0904 182.731 80.3213 183.882C79.5521 185.034 78.4589 185.931 77.1799 186.461C75.9009 186.99 74.4934 187.129 73.1356 186.859C71.7778 186.589 70.5306 185.922 69.5516 184.943C68.5727 183.964 67.906 182.717 67.636 181.359C67.3659 180.001 67.5045 178.594 68.0343 177.315C68.5641 176.036 69.4613 174.943 70.6124 174.174C71.7635 173.404 73.1168 172.994 74.5012 172.994H75.4252C76.3534 172.994 77.2436 172.625 77.9 171.969C78.5563 171.312 78.925 170.422 78.925 169.494C78.925 168.566 78.5563 167.676 77.9 167.019C77.2436 166.363 76.3534 165.994 75.4252 165.994H74.5012C73.1168 165.994 71.7635 165.584 70.6124 164.814C69.4613 164.045 68.5641 162.952 68.0343 161.673C67.5045 160.394 67.3659 158.987 67.636 157.629C67.906 156.271 68.5727 155.024 69.5516 154.045C70.5306 153.066 71.7778 152.399 73.1356 152.129C74.4934 151.859 75.9009 151.998 77.1799 152.527C78.4589 153.057 79.5521 153.954 80.3213 155.106C81.0904 156.257 81.501 157.61 81.501 158.994C81.501 159.923 81.8697 160.813 82.526 161.469C83.1824 162.125 84.0726 162.494 85.0008 162.494H126.999ZM133.999 130.995H78.0011V74.9974H133.999V130.995ZM137.499 67.9977H74.5012C73.573 67.9977 72.6828 68.3664 72.0264 69.0228C71.3701 69.6791 71.0013 70.5693 71.0013 71.4976V81.9972H55.8364C53.8975 81.9972 51.948 81.8782 50.0021 81.7067V67.9977C50.0021 67.0695 49.6334 66.1793 48.977 65.5229C48.3207 64.8666 47.4305 64.4978 46.5022 64.4978H32.5027C31.5745 64.4978 30.6843 64.8666 30.028 65.5229C29.3716 66.1793 29.0029 67.0695 29.0029 67.9977V76.3449C24.3705 74.3024 19.987 71.7366 15.9379 68.6977L10.3346 64.4978L15.9344 60.298C27.4588 51.6919 41.4497 47.0283 55.8329 46.9985H156.164C170.547 47.0283 184.538 51.6919 196.062 60.298L201.662 64.4978L196.062 68.6977C184.538 77.3037 170.547 81.9673 156.164 81.9972H140.999V71.4976C140.999 70.5693 140.63 69.6791 139.974 69.0228C139.317 68.3664 138.427 67.9977 137.499 67.9977ZM203.996 95.9967C203.996 96.54 203.87 97.0759 203.627 97.5619C203.384 98.0478 203.031 98.4706 202.596 98.7966L196.062 103.696C184.538 112.302 170.547 116.966 156.164 116.996H140.999V88.9969H156.164C172.061 88.9648 187.525 83.8102 200.262 74.2975L203.996 71.4976V95.9967ZM203.996 57.4981L200.266 54.6982C187.528 45.1854 172.065 40.0308 156.167 39.9987H144.499L150.098 35.7989C150.533 35.4729 150.886 35.0501 151.129 34.5642C151.372 34.0782 151.498 33.5423 151.498 32.999V18.9995C151.498 18.4561 151.372 17.9203 151.129 17.4343C150.886 16.9483 150.533 16.5256 150.098 16.1996L144.499 11.9997H156.164C170.547 12.0296 184.538 16.6932 196.062 25.2993L202.596 30.1991C203.031 30.5251 203.384 30.9478 203.627 31.4338C203.87 31.9198 203.996 32.4556 203.996 32.999V57.4981Z"/>
</mask>
<path d="M206.796 24.5993L200.266 19.6995C187.527 10.186 172.062 5.03134 156.164 5H55.8364C39.939 5.03209 24.4752 10.1867 11.738 19.6995L5.20375 24.5993C3.90255 25.5799 2.84619 26.8486 2.11752 28.306C1.38886 29.7633 1.00769 31.3696 1.00391 32.999V95.9967C1.00661 97.6262 1.38731 99.2329 2.11606 100.69C2.84481 102.148 3.90175 103.416 5.20375 104.396L11.7345 109.296C17.0339 113.249 22.8424 116.469 29.0029 118.868V130.995C29.0029 131.924 29.3716 132.814 30.028 133.47C30.6843 134.127 31.5745 134.495 32.5027 134.495H46.5022C47.4305 134.495 48.3207 134.127 48.977 133.47C49.6334 132.814 50.0021 131.924 50.0021 130.995V123.737C51.948 123.891 53.8975 123.996 55.8364 123.996H71.0013V134.495C71.0013 135.423 71.3701 136.314 72.0264 136.97C72.6828 137.626 73.573 137.995 74.5012 137.995H102.5V155.494H88.0597C87.5132 153.373 86.4765 151.41 85.033 149.762C83.5895 148.115 81.7795 146.829 79.7485 146.008C77.7176 145.187 75.5224 144.854 73.3394 145.036C71.1565 145.218 69.0467 145.91 67.1798 147.056C65.3129 148.202 63.7409 149.77 62.5903 151.634C61.4397 153.498 60.7425 155.606 60.5549 157.788C60.3673 159.971 60.6945 162.167 61.5101 164.2C62.3257 166.233 63.6071 168.046 65.251 169.494C63.6071 170.942 62.3257 172.755 61.5101 174.788C60.6945 176.821 60.3673 179.017 60.5549 181.199C60.7425 183.382 61.4397 185.49 62.5903 187.354C63.7409 189.218 65.3129 190.786 67.1798 191.932C69.0467 193.078 71.1565 193.77 73.3394 193.952C75.5224 194.134 77.7176 193.801 79.7485 192.98C81.7795 192.159 83.5895 190.873 85.033 189.226C86.4765 187.578 87.5132 185.615 88.0597 183.493H123.94C124.487 185.615 125.524 187.578 126.967 189.226C128.411 190.873 130.221 192.159 132.252 192.98C134.283 193.801 136.478 194.134 138.661 193.952C140.844 193.77 142.953 193.078 144.82 191.932C146.687 190.786 148.259 189.218 149.41 187.354C150.56 185.49 151.258 183.382 151.445 181.199C151.633 179.017 151.306 176.821 150.49 174.788C149.674 172.755 148.393 170.942 146.749 169.494C148.393 168.046 149.674 166.233 150.49 164.2C151.306 162.167 151.633 159.971 151.445 157.788C151.258 155.606 150.56 153.498 149.41 151.634C148.259 149.77 146.687 148.202 144.82 147.056C142.953 145.91 140.844 145.218 138.661 145.036C136.478 144.854 134.283 145.187 132.252 146.008C130.221 146.829 128.411 148.115 126.967 149.762C125.524 151.41 124.487 153.373 123.94 155.494H109.5V137.995H137.499C138.427 137.995 139.317 137.626 139.974 136.97C140.63 136.314 140.999 135.423 140.999 134.495V123.996H156.164C172.061 123.964 187.525 118.809 200.262 109.296L206.796 104.396C208.098 103.416 209.154 102.147 209.883 100.69C210.611 99.2323 210.992 97.626 210.996 95.9967V32.999C210.994 31.3694 210.613 29.7626 209.884 28.3051C209.156 26.8475 208.099 25.579 206.796 24.5993V24.5993ZM8.00365 32.999C8.00365 32.4556 8.13015 31.9198 8.37314 31.4338C8.61613 30.9478 8.96893 30.5251 9.4036 30.1991L15.9379 25.2993C27.4623 16.6932 41.4532 12.0296 55.8364 11.9997H132.834L144.499 20.7494V31.249L132.834 39.9987H55.8364C39.939 40.0308 24.4752 45.1854 11.738 54.6982L8.00365 57.4981V32.999ZM29.0029 111.344C24.3705 109.301 19.987 106.735 15.9379 103.696L9.4036 98.7966C8.96893 98.4706 8.61613 98.0478 8.37314 97.5619C8.13015 97.0759 8.00365 96.54 8.00365 95.9967V71.4976L11.7345 74.2975C17.0339 78.2503 22.8424 81.4701 29.0029 83.8696V111.344ZM43.0024 127.496H36.0026V71.4976H43.0024V127.496ZM71.0013 116.996H55.8364C53.8975 116.996 51.948 116.877 50.0021 116.705V88.7379C51.948 88.8919 53.8975 88.9969 55.8364 88.9969H71.0013V116.996ZM126.999 162.494C127.928 162.494 128.818 162.125 129.474 161.469C130.13 160.813 130.499 159.923 130.499 158.994C130.499 157.61 130.91 156.257 131.679 155.106C132.448 153.954 133.541 153.057 134.82 152.527C136.099 151.998 137.507 151.859 138.864 152.129C140.222 152.399 141.47 153.066 142.448 154.045C143.427 155.024 144.094 156.271 144.364 157.629C144.634 158.987 144.496 160.394 143.966 161.673C143.436 162.952 142.539 164.045 141.388 164.814C140.237 165.584 138.883 165.994 137.499 165.994H136.575C135.647 165.994 134.756 166.363 134.1 167.019C133.444 167.676 133.075 168.566 133.075 169.494C133.075 170.422 133.444 171.312 134.1 171.969C134.756 172.625 135.647 172.994 136.575 172.994H137.499C138.883 172.994 140.237 173.404 141.388 174.174C142.539 174.943 143.436 176.036 143.966 177.315C144.496 178.594 144.634 180.001 144.364 181.359C144.094 182.717 143.427 183.964 142.448 184.943C141.47 185.922 140.222 186.589 138.864 186.859C137.507 187.129 136.099 186.99 134.82 186.461C133.541 185.931 132.448 185.034 131.679 183.882C130.91 182.731 130.499 181.378 130.499 179.994C130.499 179.065 130.13 178.175 129.474 177.519C128.818 176.862 127.928 176.494 126.999 176.494H85.0008C84.0726 176.494 83.1824 176.862 82.526 177.519C81.8697 178.175 81.501 179.065 81.501 179.994C81.501 181.378 81.0904 182.731 80.3213 183.882C79.5521 185.034 78.4589 185.931 77.1799 186.461C75.9009 186.99 74.4934 187.129 73.1356 186.859C71.7778 186.589 70.5306 185.922 69.5516 184.943C68.5727 183.964 67.906 182.717 67.636 181.359C67.3659 180.001 67.5045 178.594 68.0343 177.315C68.5641 176.036 69.4613 174.943 70.6124 174.174C71.7635 173.404 73.1168 172.994 74.5012 172.994H75.4252C76.3534 172.994 77.2436 172.625 77.9 171.969C78.5563 171.312 78.925 170.422 78.925 169.494C78.925 168.566 78.5563 167.676 77.9 167.019C77.2436 166.363 76.3534 165.994 75.4252 165.994H74.5012C73.1168 165.994 71.7635 165.584 70.6124 164.814C69.4613 164.045 68.5641 162.952 68.0343 161.673C67.5045 160.394 67.3659 158.987 67.636 157.629C67.906 156.271 68.5727 155.024 69.5516 154.045C70.5306 153.066 71.7778 152.399 73.1356 152.129C74.4934 151.859 75.9009 151.998 77.1799 152.527C78.4589 153.057 79.5521 153.954 80.3213 155.106C81.0904 156.257 81.501 157.61 81.501 158.994C81.501 159.923 81.8697 160.813 82.526 161.469C83.1824 162.125 84.0726 162.494 85.0008 162.494H126.999ZM133.999 130.995H78.0011V74.9974H133.999V130.995ZM137.499 67.9977H74.5012C73.573 67.9977 72.6828 68.3664 72.0264 69.0228C71.3701 69.6791 71.0013 70.5693 71.0013 71.4976V81.9972H55.8364C53.8975 81.9972 51.948 81.8782 50.0021 81.7067V67.9977C50.0021 67.0695 49.6334 66.1793 48.977 65.5229C48.3207 64.8666 47.4305 64.4978 46.5022 64.4978H32.5027C31.5745 64.4978 30.6843 64.8666 30.028 65.5229C29.3716 66.1793 29.0029 67.0695 29.0029 67.9977V76.3449C24.3705 74.3024 19.987 71.7366 15.9379 68.6977L10.3346 64.4978L15.9344 60.298C27.4588 51.6919 41.4497 47.0283 55.8329 46.9985H156.164C170.547 47.0283 184.538 51.6919 196.062 60.298L201.662 64.4978L196.062 68.6977C184.538 77.3037 170.547 81.9673 156.164 81.9972H140.999V71.4976C140.999 70.5693 140.63 69.6791 139.974 69.0228C139.317 68.3664 138.427 67.9977 137.499 67.9977ZM203.996 95.9967C203.996 96.54 203.87 97.0759 203.627 97.5619C203.384 98.0478 203.031 98.4706 202.596 98.7966L196.062 103.696C184.538 112.302 170.547 116.966 156.164 116.996H140.999V88.9969H156.164C172.061 88.9648 187.525 83.8102 200.262 74.2975L203.996 71.4976V95.9967ZM203.996 57.4981L200.266 54.6982C187.528 45.1854 172.065 40.0308 156.167 39.9987H144.499L150.098 35.7989C150.533 35.4729 150.886 35.0501 151.129 34.5642C151.372 34.0782 151.498 33.5423 151.498 32.999V18.9995C151.498 18.4561 151.372 17.9203 151.129 17.4343C150.886 16.9483 150.533 16.5256 150.098 16.1996L144.499 11.9997H156.164C170.547 12.0296 184.538 16.6932 196.062 25.2993L202.596 30.1991C203.031 30.5251 203.384 30.9478 203.627 31.4338C203.87 31.9198 203.996 32.4556 203.996 32.999V57.4981Z" fill="#45C1C7"/>
<path d="M206.796 24.5993L200.266 19.6995C187.527 10.186 172.062 5.03134 156.164 5H55.8364C39.939 5.03209 24.4752 10.1867 11.738 19.6995L5.20375 24.5993C3.90255 25.5799 2.84619 26.8486 2.11752 28.306C1.38886 29.7633 1.00769 31.3696 1.00391 32.999V95.9967C1.00661 97.6262 1.38731 99.2329 2.11606 100.69C2.84481 102.148 3.90175 103.416 5.20375 104.396L11.7345 109.296C17.0339 113.249 22.8424 116.469 29.0029 118.868V130.995C29.0029 131.924 29.3716 132.814 30.028 133.47C30.6843 134.127 31.5745 134.495 32.5027 134.495H46.5022C47.4305 134.495 48.3207 134.127 48.977 133.47C49.6334 132.814 50.0021 131.924 50.0021 130.995V123.737C51.948 123.891 53.8975 123.996 55.8364 123.996H71.0013V134.495C71.0013 135.423 71.3701 136.314 72.0264 136.97C72.6828 137.626 73.573 137.995 74.5012 137.995H102.5V155.494H88.0597C87.5132 153.373 86.4765 151.41 85.033 149.762C83.5895 148.115 81.7795 146.829 79.7485 146.008C77.7176 145.187 75.5224 144.854 73.3394 145.036C71.1565 145.218 69.0467 145.91 67.1798 147.056C65.3129 148.202 63.7409 149.77 62.5903 151.634C61.4397 153.498 60.7425 155.606 60.5549 157.788C60.3673 159.971 60.6945 162.167 61.5101 164.2C62.3257 166.233 63.6071 168.046 65.251 169.494C63.6071 170.942 62.3257 172.755 61.5101 174.788C60.6945 176.821 60.3673 179.017 60.5549 181.199C60.7425 183.382 61.4397 185.49 62.5903 187.354C63.7409 189.218 65.3129 190.786 67.1798 191.932C69.0467 193.078 71.1565 193.77 73.3394 193.952C75.5224 194.134 77.7176 193.801 79.7485 192.98C81.7795 192.159 83.5895 190.873 85.033 189.226C86.4765 187.578 87.5132 185.615 88.0597 183.493H123.94C124.487 185.615 125.524 187.578 126.967 189.226C128.411 190.873 130.221 192.159 132.252 192.98C134.283 193.801 136.478 194.134 138.661 193.952C140.844 193.77 142.953 193.078 144.82 191.932C146.687 190.786 148.259 189.218 149.41 187.354C150.56 185.49 151.258 183.382 151.445 181.199C151.633 179.017 151.306 176.821 150.49 174.788C149.674 172.755 148.393 170.942 146.749 169.494C148.393 168.046 149.674 166.233 150.49 164.2C151.306 162.167 151.633 159.971 151.445 157.788C151.258 155.606 150.56 153.498 149.41 151.634C148.259 149.77 146.687 148.202 144.82 147.056C142.953 145.91 140.844 145.218 138.661 145.036C136.478 144.854 134.283 145.187 132.252 146.008C130.221 146.829 128.411 148.115 126.967 149.762C125.524 151.41 124.487 153.373 123.94 155.494H109.5V137.995H137.499C138.427 137.995 139.317 137.626 139.974 136.97C140.63 136.314 140.999 135.423 140.999 134.495V123.996H156.164C172.061 123.964 187.525 118.809 200.262 109.296L206.796 104.396C208.098 103.416 209.154 102.147 209.883 100.69C210.611 99.2323 210.992 97.626 210.996 95.9967V32.999C210.994 31.3694 210.613 29.7626 209.884 28.3051C209.156 26.8475 208.099 25.579 206.796 24.5993V24.5993ZM8.00365 32.999C8.00365 32.4556 8.13015 31.9198 8.37314 31.4338C8.61613 30.9478 8.96893 30.5251 9.4036 30.1991L15.9379 25.2993C27.4623 16.6932 41.4532 12.0296 55.8364 11.9997H132.834L144.499 20.7494V31.249L132.834 39.9987H55.8364C39.939 40.0308 24.4752 45.1854 11.738 54.6982L8.00365 57.4981V32.999ZM29.0029 111.344C24.3705 109.301 19.987 106.735 15.9379 103.696L9.4036 98.7966C8.96893 98.4706 8.61613 98.0478 8.37314 97.5619C8.13015 97.0759 8.00365 96.54 8.00365 95.9967V71.4976L11.7345 74.2975C17.0339 78.2503 22.8424 81.4701 29.0029 83.8696V111.344ZM43.0024 127.496H36.0026V71.4976H43.0024V127.496ZM71.0013 116.996H55.8364C53.8975 116.996 51.948 116.877 50.0021 116.705V88.7379C51.948 88.8919 53.8975 88.9969 55.8364 88.9969H71.0013V116.996ZM126.999 162.494C127.928 162.494 128.818 162.125 129.474 161.469C130.13 160.813 130.499 159.923 130.499 158.994C130.499 157.61 130.91 156.257 131.679 155.106C132.448 153.954 133.541 153.057 134.82 152.527C136.099 151.998 137.507 151.859 138.864 152.129C140.222 152.399 141.47 153.066 142.448 154.045C143.427 155.024 144.094 156.271 144.364 157.629C144.634 158.987 144.496 160.394 143.966 161.673C143.436 162.952 142.539 164.045 141.388 164.814C140.237 165.584 138.883 165.994 137.499 165.994H136.575C135.647 165.994 134.756 166.363 134.1 167.019C133.444 167.676 133.075 168.566 133.075 169.494C133.075 170.422 133.444 171.312 134.1 171.969C134.756 172.625 135.647 172.994 136.575 172.994H137.499C138.883 172.994 140.237 173.404 141.388 174.174C142.539 174.943 143.436 176.036 143.966 177.315C144.496 178.594 144.634 180.001 144.364 181.359C144.094 182.717 143.427 183.964 142.448 184.943C141.47 185.922 140.222 186.589 138.864 186.859C137.507 187.129 136.099 186.99 134.82 186.461C133.541 185.931 132.448 185.034 131.679 183.882C130.91 182.731 130.499 181.378 130.499 179.994C130.499 179.065 130.13 178.175 129.474 177.519C128.818 176.862 127.928 176.494 126.999 176.494H85.0008C84.0726 176.494 83.1824 176.862 82.526 177.519C81.8697 178.175 81.501 179.065 81.501 179.994C81.501 181.378 81.0904 182.731 80.3213 183.882C79.5521 185.034 78.4589 185.931 77.1799 186.461C75.9009 186.99 74.4934 187.129 73.1356 186.859C71.7778 186.589 70.5306 185.922 69.5516 184.943C68.5727 183.964 67.906 182.717 67.636 181.359C67.3659 180.001 67.5045 178.594 68.0343 177.315C68.5641 176.036 69.4613 174.943 70.6124 174.174C71.7635 173.404 73.1168 172.994 74.5012 172.994H75.4252C76.3534 172.994 77.2436 172.625 77.9 171.969C78.5563 171.312 78.925 170.422 78.925 169.494C78.925 168.566 78.5563 167.676 77.9 167.019C77.2436 166.363 76.3534 165.994 75.4252 165.994H74.5012C73.1168 165.994 71.7635 165.584 70.6124 164.814C69.4613 164.045 68.5641 162.952 68.0343 161.673C67.5045 160.394 67.3659 158.987 67.636 157.629C67.906 156.271 68.5727 155.024 69.5516 154.045C70.5306 153.066 71.7778 152.399 73.1356 152.129C74.4934 151.859 75.9009 151.998 77.1799 152.527C78.4589 153.057 79.5521 153.954 80.3213 155.106C81.0904 156.257 81.501 157.61 81.501 158.994C81.501 159.923 81.8697 160.813 82.526 161.469C83.1824 162.125 84.0726 162.494 85.0008 162.494H126.999ZM133.999 130.995H78.0011V74.9974H133.999V130.995ZM137.499 67.9977H74.5012C73.573 67.9977 72.6828 68.3664 72.0264 69.0228C71.3701 69.6791 71.0013 70.5693 71.0013 71.4976V81.9972H55.8364C53.8975 81.9972 51.948 81.8782 50.0021 81.7067V67.9977C50.0021 67.0695 49.6334 66.1793 48.977 65.5229C48.3207 64.8666 47.4305 64.4978 46.5022 64.4978H32.5027C31.5745 64.4978 30.6843 64.8666 30.028 65.5229C29.3716 66.1793 29.0029 67.0695 29.0029 67.9977V76.3449C24.3705 74.3024 19.987 71.7366 15.9379 68.6977L10.3346 64.4978L15.9344 60.298C27.4588 51.6919 41.4497 47.0283 55.8329 46.9985H156.164C170.547 47.0283 184.538 51.6919 196.062 60.298L201.662 64.4978L196.062 68.6977C184.538 77.3037 170.547 81.9673 156.164 81.9972H140.999V71.4976C140.999 70.5693 140.63 69.6791 139.974 69.0228C139.317 68.3664 138.427 67.9977 137.499 67.9977ZM203.996 95.9967C203.996 96.54 203.87 97.0759 203.627 97.5619C203.384 98.0478 203.031 98.4706 202.596 98.7966L196.062 103.696C184.538 112.302 170.547 116.966 156.164 116.996H140.999V88.9969H156.164C172.061 88.9648 187.525 83.8102 200.262 74.2975L203.996 71.4976V95.9967ZM203.996 57.4981L200.266 54.6982C187.528 45.1854 172.065 40.0308 156.167 39.9987H144.499L150.098 35.7989C150.533 35.4729 150.886 35.0501 151.129 34.5642C151.372 34.0782 151.498 33.5423 151.498 32.999V18.9995C151.498 18.4561 151.372 17.9203 151.129 17.4343C150.886 16.9483 150.533 16.5256 150.098 16.1996L144.499 11.9997H156.164C170.547 12.0296 184.538 16.6932 196.062 25.2993L202.596 30.1991C203.031 30.5251 203.384 30.9478 203.627 31.4338C203.87 31.9198 203.996 32.4556 203.996 32.999V57.4981Z" stroke="#45C1C7" stroke-width="2" mask="url(#path-9-outside-1)"/>
</svg>
