<svg xmlns="http://www.w3.org/2000/svg" xmlns:xlink="http://www.w3.org/1999/xlink" version="1.1" x="0px" y="0px" viewBox="0 0 100 100" style="enable-background:new 0 0 100 100;max-width:100%" xml:space="preserve" height="100%"><g style="" fill="currentColor"><path d="M98,54c0-5.7-2.6-10.4-6.1-11.7C91,20,72.6,2,50,2C27.4,2,9,20,8.1,42.3C4.6,43.6,2,48.3,2,54c0,6.7,3.5,12,8,12h4.4   c0.8,2.3,3,4,5.6,4c3.3,0,6-2.7,6-6V44c0-3.3-2.7-6-6-6c-2.6,0-4.8,1.7-5.6,4h-2.3c0.5-9,4-17.1,9.7-23.4l4.8,4.8   c0.7,0.7,1.9,0.8,2.7,0.1c11.4-10,30-10,41.4,0c0.4,0.3,0.8,0.5,1.3,0.5c0.5,0,1-0.2,1.4-0.6l4.8-4.8c5.6,6.3,9.2,14.4,9.7,23.4   h-2.3c-0.8-2.3-3-4-5.6-4c-3.3,0-6,2.7-6,6v20c0,3.3,2.7,6,6,6c2.6,0,4.8-1.7,5.6-4H88v6c0,9.9-8.1,18-18,18h-6.4   c-0.8-2.3-3-4-5.6-4H46c-3.3,0-6,2.7-6,6s2.7,6,6,6h12c2.6,0,4.8-1.7,5.6-4H70c12.1,0,22-9.9,22-22v-6.4C95.5,64.3,98,59.7,98,54z    M58,94H46c-1.1,0-2-0.9-2-2s0.9-2,2-2h12c1.1,0,2,0.9,2,2S59.1,94,58,94z M20,42c1.1,0,2,0.9,2,2v20c0,1.1-0.9,2-2,2   c-1.1,0-2-0.9-2-2V44C18,42.9,18.9,42,20,42z M14,62h-4c-1.9,0-4-3.4-4-8s2.1-8,4-8h4V62z M71.9,19.3c-12.4-9.7-31.3-9.7-43.7,0   l-3.5-3.5C31.4,9.7,40.2,6,50,6c9.8,0,18.6,3.7,25.4,9.8L71.9,19.3z M80,66c-1.1,0-2-0.9-2-2V44c0-1.1,0.9-2,2-2c1.1,0,2,0.9,2,2   v20C82,65.1,81.1,66,80,66z M90,62h-4V46h4c1.9,0,4,3.4,4,8S91.9,62,90,62z" style="" fill="currentColor"></path></g></svg>