<svg xmlns="http://www.w3.org/2000/svg" xmlns:xlink="http://www.w3.org/1999/xlink" version="1.1" baseProfile="tiny" x="0px" y="0px" viewBox="0 0 96 96" xml:space="preserve" style="max-width:100%" height="100%"><g style="" fill="currentColor"><g style="" fill="currentColor"><path d="M80,47.871c0,4.488-3.631,8.117-8.121,8.117c-4.482,0-8.115-3.629-8.115-8.117c0-4.482,7.395-11.8,11.879-11.8    C80.135,36.071,80,43.389,80,47.871z" style="" fill="currentColor"></path><path d="M32.239,47.871c0,4.488-3.631,8.117-8.122,8.117c-4.483,0-8.113-3.629-8.113-8.117c0-4.482-0.277-11.8,4.205-11.8    C24.7,36.071,32.239,43.389,32.239,47.871z" style="" fill="currentColor"></path><path d="M66.332,31.636c0,4.487-3.631,8.118-8.119,8.118c-4.484,0-8.117-3.631-8.117-8.118c0-4.481,3.633-14.979,8.117-14.979    C62.701,16.656,66.332,27.154,66.332,31.636z" style="" fill="currentColor"></path><path d="M68.109,63.564c2.178,8.974-7.008,16.028-20.537,15.772c-13.515-0.257-22.541-7.518-20.169-16.235    c2.368-8.706,11.553-15.771,20.52-15.771C56.9,47.331,65.932,54.603,68.109,63.564z" style="" fill="currentColor"></path><path d="M45.769,31.636c0,4.487-3.632,8.118-8.12,8.118c-4.485,0-8.115-3.631-8.115-8.118c0-4.481,3.63-14.979,8.115-14.979    C42.137,16.656,45.769,27.154,45.769,31.636z" style="" fill="currentColor"></path></g></g></svg>