<svg xmlns="http://www.w3.org/2000/svg" viewBox="0 0 64 64" x="0px" y="0px" style="max-width:100%" height="100%"><title style="" fill="currentColor">return, product</title><g style="" fill="currentColor"><path d="M56.233,20.751a1.474,1.474,0,0,0-.114-.541v0a1.509,1.509,0,0,0-.332-.483l0-.006-7.938-7.709a1.5,1.5,0,0,0-1.045-.424H17.2a1.5,1.5,0,0,0-1.045.424L8.218,19.717l0,.006a1.5,1.5,0,0,0-.332.484v0a1.483,1.483,0,0,0-.114.542c0,.01,0,.019,0,.028V50.916a1.5,1.5,0,0,0,1.5,1.5H54.737a1.5,1.5,0,0,0,1.5-1.5V20.779C56.236,20.77,56.233,20.761,56.233,20.751ZM17.81,14.584H46.19l4.85,4.709H12.96ZM53.237,49.416H10.763V22.293H53.237Zm-13.91-12.2a3.714,3.714,0,0,0-3.71-3.71H26.794l1.542,1.541a1.5,1.5,0,1,1-2.121,2.121l-4.1-4.1a1.519,1.519,0,0,1-.327-.491l-.007-.023a1.5,1.5,0,0,1-.106-.547h0a1.5,1.5,0,0,1,.106-.546l.007-.023a1.513,1.513,0,0,1,.327-.492l4.1-4.1a1.5,1.5,0,1,1,2.121,2.121l-1.542,1.542h8.823a6.71,6.71,0,0,1,0,13.42H23.173a1.5,1.5,0,0,1,0-3H35.617A3.714,3.714,0,0,0,39.327,37.218Z" style="" fill="currentColor"></path></g></svg>